<svg width="147" height="107" viewBox="0 0 147 107" fill="none" xmlns="http://www.w3.org/2000/svg">
<g opacity="0.1">
<path d="M86.8634 60.1362C81.2953 60.1362 76.5623 58.1874 72.6646 54.2897C68.7669 50.3919 66.818 45.659 66.818 40.0908C66.818 34.5226 68.7669 29.7897 72.6646 25.892C76.5623 21.9943 81.2953 20.0454 86.8634 20.0454C92.4316 20.0454 97.1646 21.9943 101.062 25.892C104.96 29.7897 106.909 34.5226 106.909 40.0908C106.909 45.659 104.96 50.3919 101.062 54.2897C97.1646 58.1874 92.4316 60.1362 86.8634 60.1362ZM40.0908 80.1816C36.4158 80.1816 33.2698 78.8731 30.6528 76.2561C28.0357 73.639 26.7272 70.493 26.7272 66.818V13.3636C26.7272 9.68861 28.0357 6.5426 30.6528 3.92556C33.2698 1.30852 36.4158 0 40.0908 0H133.636C137.311 0 140.457 1.30852 143.074 3.92556C145.691 6.5426 147 9.68861 147 13.3636V66.818C147 70.493 145.691 73.639 143.074 76.2561C140.457 78.8731 137.311 80.1816 133.636 80.1816H40.0908ZM53.4544 66.818H120.272C120.272 63.143 121.581 59.997 124.198 57.38C126.815 54.7629 129.961 53.4544 133.636 53.4544V26.7272C129.961 26.7272 126.815 25.4187 124.198 22.8017C121.581 20.1846 120.272 17.0386 120.272 13.3636H53.4544C53.4544 17.0386 52.1459 20.1846 49.5289 22.8017C46.9118 25.4187 43.7658 26.7272 40.0908 26.7272V53.4544C43.7658 53.4544 46.9118 54.7629 49.5289 57.38C52.1459 59.997 53.4544 63.143 53.4544 66.818ZM126.954 106.909H13.3636C9.68861 106.909 6.5426 105.6 3.92556 102.983C1.30852 100.366 0 97.2202 0 93.5452V20.0454H13.3636V93.5452H126.954V106.909ZM40.0908 66.818V13.3636V66.818Z" fill="white"/>
</g>
</svg>
