<svg width="117" height="36" viewBox="0 0 117 36" fill="none" xmlns="http://www.w3.org/2000/svg">
<rect width="116.44" height="36" rx="8" fill="white"/>
<path d="M17.2008 23V12.8145H20.8496C21.636 12.8145 22.2904 12.96 22.813 13.251C23.3355 13.542 23.7271 13.9363 23.9878 14.4337C24.2485 14.9312 24.3788 15.4937 24.3788 16.1211C24.3788 16.7494 24.2479 17.3131 23.986 17.8123C23.7241 18.3114 23.3313 18.7066 22.8078 18.9979C22.2842 19.2892 21.6276 19.4348 20.8379 19.4348H18.3419V18.1123H20.6866C21.1866 18.1123 21.5921 18.0262 21.903 17.8539C22.2139 17.6816 22.4411 17.4449 22.5847 17.1437C22.7283 16.8425 22.8001 16.5017 22.8001 16.1211C22.8001 15.739 22.7283 15.3993 22.5847 15.1023C22.4411 14.8053 22.213 14.5721 21.9002 14.403C21.5874 14.2338 21.1792 14.1492 20.6754 14.1492H18.763V23H17.2008ZM28.2842 23.1679C27.8003 23.1679 27.3629 23.0786 26.972 22.9C26.5811 22.7214 26.2714 22.4587 26.0431 22.1119C25.8148 21.7651 25.7006 21.3406 25.7006 20.8385C25.7006 20.4043 25.7843 20.0484 25.9518 19.7708C26.1192 19.4933 26.3446 19.273 26.6278 19.1101C26.911 18.9471 27.2271 18.8246 27.5759 18.7426C27.9248 18.6607 28.2806 18.5985 28.6435 18.5562C29.0943 18.5019 29.4606 18.4576 29.7424 18.4232C30.0242 18.3888 30.2325 18.3319 30.3674 18.2524C30.5023 18.1728 30.5697 18.0434 30.5697 17.8639V17.8253C30.5697 17.54 30.5148 17.2984 30.4049 17.1008C30.295 16.9031 30.1315 16.7514 29.9142 16.6456C29.6969 16.5399 29.4265 16.487 29.103 16.487C28.7729 16.487 28.4886 16.5382 28.2502 16.6407C28.0117 16.7431 27.8178 16.8734 27.6683 17.0316C27.5188 17.1898 27.4076 17.3557 27.3345 17.5293L25.9194 17.1655C26.0932 16.7072 26.3419 16.3391 26.6656 16.061C26.9892 15.783 27.3604 15.5803 27.7791 15.4529C28.1978 15.3254 28.6322 15.2617 29.0824 15.2617C29.3892 15.2617 29.7159 15.2984 30.0622 15.3718C30.4086 15.4453 30.7341 15.5772 31.0388 15.7677C31.3435 15.9582 31.5921 16.2274 31.7846 16.5753C31.9771 16.9232 32.0734 17.3735 32.0734 17.9262V23H30.6185V21.9536H30.5414C30.4425 22.151 30.2951 22.343 30.0992 22.5297C29.9033 22.7164 29.6555 22.8694 29.3559 22.9888C29.0563 23.1082 28.6991 23.1679 28.2842 23.1679ZM28.6179 21.9641C29.0294 21.9641 29.3806 21.8834 29.6717 21.7221C29.9628 21.5608 30.186 21.3488 30.3415 21.0861C30.4969 20.8234 30.5747 20.5441 30.5747 20.2481V19.2661C30.5204 19.3196 30.4168 19.3684 30.2638 19.4126C30.1107 19.4567 29.937 19.4958 29.7427 19.5298C29.5484 19.5638 29.3593 19.5927 29.1753 19.6166C28.9914 19.6404 28.841 19.6595 28.7242 19.674C28.4427 19.7097 28.1843 19.7707 27.949 19.8571C27.7136 19.9435 27.5267 20.0664 27.3881 20.2258C27.2496 20.3853 27.1803 20.5964 27.1803 20.8594C27.1803 21.1016 27.2425 21.3043 27.3669 21.4677C27.4914 21.6311 27.6614 21.7547 27.877 21.8384C28.0927 21.9222 28.3397 21.9641 28.6179 21.9641ZM37.4323 26.0215C36.8434 26.0215 36.3327 25.9468 35.9002 25.7975C35.4677 25.6482 35.1108 25.4475 34.8295 25.1954C34.5483 24.9432 34.3357 24.6638 34.1918 24.3571L35.4446 23.7662C35.5392 23.9104 35.6627 24.0642 35.815 24.2275C35.9674 24.3909 36.1726 24.5287 36.4306 24.6409C36.6887 24.7531 37.0218 24.8092 37.4299 24.8092C38.011 24.8092 38.4829 24.672 38.8455 24.3975C39.2081 24.1231 39.3895 23.6919 39.3895 23.104V21.6146H39.2585C39.1703 21.7801 39.0449 21.9615 38.8823 22.1588C38.7197 22.356 38.4937 22.5258 38.2043 22.6683C37.9149 22.8107 37.5372 22.8819 37.0713 22.8819C36.4729 22.8819 35.9327 22.7405 35.4509 22.4576C34.969 22.1748 34.5874 21.7562 34.306 21.2019C34.0247 20.6475 33.8841 19.9642 33.8841 19.1519C33.8841 18.3389 34.0241 17.6423 34.3041 17.062C34.5842 16.4818 34.9661 16.0367 35.4498 15.7267C35.9336 15.4167 36.4807 15.2617 37.0912 15.2617C37.5629 15.2617 37.9451 15.3397 38.2378 15.4958C38.5305 15.6518 38.7601 15.8355 38.9266 16.0468C39.0931 16.258 39.2208 16.4431 39.3099 16.602H39.415V15.3574H40.8857V23.1109C40.8857 23.7778 40.7341 24.3265 40.4309 24.757C40.1277 25.1876 39.7155 25.5059 39.1943 25.7122C38.6731 25.9184 38.0857 26.0215 37.4323 26.0215ZM37.4215 21.6331C37.8486 21.6331 38.2092 21.5337 38.5032 21.3349C38.7972 21.1361 39.0202 20.8494 39.1724 20.4749C39.3246 20.1003 39.4007 19.6518 39.4007 19.1295C39.4007 18.6167 39.3255 18.1668 39.1752 17.7798C39.0249 17.3928 38.8028 17.0899 38.5088 16.8712C38.2148 16.6525 37.8524 16.5432 37.4215 16.5432C36.9803 16.5432 36.611 16.6581 36.3137 16.8881C36.0164 17.118 35.793 17.4274 35.6435 17.8162C35.494 18.2051 35.4193 18.6429 35.4193 19.1295C35.4193 19.6265 35.4949 20.0632 35.6463 20.4397C35.7976 20.8161 36.022 21.1091 36.3193 21.3187C36.6166 21.5283 36.984 21.6331 37.4215 21.6331ZM45.1892 23.1679C44.7053 23.1679 44.2679 23.0786 43.877 22.9C43.4861 22.7214 43.1764 22.4587 42.9481 22.1119C42.7198 21.7651 42.6056 21.3406 42.6056 20.8385C42.6056 20.4043 42.6893 20.0484 42.8568 19.7708C43.0242 19.4933 43.2496 19.273 43.5328 19.1101C43.816 18.9471 44.1321 18.8246 44.4809 18.7426C44.8298 18.6607 45.1856 18.5985 45.5485 18.5562C45.9993 18.5019 46.3656 18.4576 46.6474 18.4232C46.9292 18.3888 47.1375 18.3319 47.2724 18.2524C47.4073 18.1728 47.4747 18.0434 47.4747 17.8639V17.8253C47.4747 17.54 47.4198 17.2984 47.3099 17.1008C47.2 16.9031 47.0365 16.7514 46.8192 16.6456C46.6019 16.5399 46.3315 16.487 46.008 16.487C45.6779 16.487 45.3936 16.5382 45.1552 16.6407C44.9167 16.7431 44.7228 16.8734 44.5733 17.0316C44.4238 17.1898 44.3126 17.3557 44.2395 17.5293L42.8244 17.1655C42.9982 16.7072 43.2469 16.3391 43.5706 16.061C43.8942 15.783 44.2654 15.5803 44.6841 15.4529C45.1028 15.3254 45.5372 15.2617 45.9874 15.2617C46.2942 15.2617 46.6209 15.2984 46.9672 15.3718C47.3136 15.4453 47.6391 15.5772 47.9438 15.7677C48.2485 15.9582 48.4971 16.2274 48.6896 16.5753C48.8821 16.9232 48.9784 17.3735 48.9784 17.9262V23H47.5235V21.9536H47.4464C47.3475 22.151 47.2001 22.343 47.0042 22.5297C46.8083 22.7164 46.5605 22.8694 46.2609 22.9888C45.9613 23.1082 45.6041 23.1679 45.1892 23.1679ZM45.5229 21.9641C45.9344 21.9641 46.2856 21.8834 46.5767 21.7221C46.8678 21.5608 47.091 21.3488 47.2465 21.0861C47.4019 20.8234 47.4797 20.5441 47.4797 20.2481V19.2661C47.4254 19.3196 47.3218 19.3684 47.1688 19.4126C47.0157 19.4567 46.842 19.4958 46.6477 19.5298C46.4534 19.5638 46.2643 19.5927 46.0803 19.6166C45.8964 19.6404 45.746 19.6595 45.6292 19.674C45.3477 19.7097 45.0893 19.7707 44.854 19.8571C44.6186 19.9435 44.4317 20.0664 44.2931 20.2258C44.1546 20.3853 44.0853 20.5964 44.0853 20.8594C44.0853 21.1016 44.1475 21.3043 44.2719 21.4677C44.3964 21.6311 44.5664 21.7547 44.782 21.8384C44.9977 21.9222 45.2447 21.9641 45.5229 21.9641ZM51.141 23V15.3574H52.5962V16.5849H52.6782C52.8187 16.1696 53.0647 15.8434 53.4164 15.6062C53.768 15.3691 54.1672 15.2505 54.6139 15.2505C54.71 15.2505 54.8201 15.254 54.9441 15.261C55.0682 15.2681 55.17 15.2767 55.2495 15.287V16.7224C55.195 16.7059 55.0901 16.6883 54.9349 16.6697C54.7796 16.6511 54.622 16.6417 54.462 16.6417C54.1147 16.6417 53.803 16.7152 53.5272 16.8621C53.2513 17.0091 53.0353 17.2113 52.879 17.4689C52.7227 17.7265 52.6446 18.0235 52.6446 18.36V23H51.141ZM59.9044 23L63.5313 12.8145H65.4437L69.1319 23H67.4473L65.4631 17.3335C65.3088 16.8729 65.1396 16.3306 64.9555 15.7067C64.7714 15.0828 64.5586 14.3339 64.317 13.4598H64.632C64.3957 14.3413 64.1861 15.0978 64.0033 15.7292C63.8204 16.3605 63.6582 16.8953 63.5168 17.3335L61.5928 23H59.9044ZM61.8696 20.3162V19.0141H67.1667V20.3162H61.8696ZM73.7202 26.0215C73.1313 26.0215 72.6206 25.9468 72.1881 25.7975C71.7555 25.6482 71.3987 25.4475 71.1174 25.1954C70.8362 24.9432 70.6236 24.6638 70.4797 24.3571L71.7325 23.7662C71.8271 23.9104 71.9505 24.0642 72.1029 24.2275C72.2552 24.3909 72.4605 24.5287 72.7185 24.6409C72.9766 24.7531 73.3097 24.8092 73.7178 24.8092C74.2989 24.8092 74.7708 24.672 75.1334 24.3975C75.496 24.1231 75.6773 23.6919 75.6773 23.104V21.6146H75.5464C75.4581 21.7801 75.3327 21.9615 75.1702 22.1588C75.0076 22.356 74.7816 22.5258 74.4922 22.6683C74.2028 22.8107 73.8251 22.8819 73.3591 22.8819C72.7608 22.8819 72.2206 22.7405 71.7388 22.4576C71.2569 22.1748 70.8753 21.7562 70.5939 21.2019C70.3126 20.6475 70.172 19.9642 70.172 19.1519C70.172 18.3389 70.312 17.6423 70.592 17.062C70.8721 16.4818 71.254 16.0367 71.7377 15.7267C72.2215 15.4167 72.7686 15.2617 73.3791 15.2617C73.8508 15.2617 74.233 15.3397 74.5257 15.4958C74.8184 15.6518 75.048 15.8355 75.2145 16.0468C75.381 16.258 75.5087 16.4431 75.5978 16.602H75.7029V15.3574H77.1736V23.1109C77.1736 23.7778 77.022 24.3265 76.7188 24.757C76.4156 25.1876 76.0034 25.5059 75.4822 25.7122C74.961 25.9184 74.3736 26.0215 73.7202 26.0215ZM73.7094 21.6331C74.1365 21.6331 74.4971 21.5337 74.7911 21.3349C75.0851 21.1361 75.3081 20.8494 75.4603 20.4749C75.6125 20.1003 75.6886 19.6518 75.6886 19.1295C75.6886 18.6167 75.6134 18.1668 75.4631 17.7798C75.3128 17.3928 75.0907 17.0899 74.7967 16.8712C74.5027 16.6525 74.1403 16.5432 73.7094 16.5432C73.2682 16.5432 72.8989 16.6581 72.6016 16.8881C72.3043 17.118 72.0809 17.4274 71.9314 17.8162C71.7819 18.2051 71.7072 18.6429 71.7072 19.1295C71.7072 19.6265 71.7828 20.0632 71.9342 20.4397C72.0855 20.8161 72.3099 21.1091 72.6072 21.3187C72.9045 21.5283 73.2719 21.6331 73.7094 21.6331ZM82.5524 23.1591C81.8351 23.1591 81.2091 22.9949 80.6746 22.6663C80.1401 22.3378 79.7252 21.8775 79.4298 21.2855C79.1344 20.6934 78.9868 20.0055 78.9868 19.2216C78.9868 18.4266 79.1344 17.7321 79.4298 17.1382C79.7252 16.5443 80.1401 16.0831 80.6746 15.7545C81.2091 15.426 81.8351 15.2617 82.5524 15.2617C83.2734 15.2617 83.9017 15.426 84.4373 15.7545C84.9729 16.0831 85.3884 16.5443 85.6837 17.1382C85.9791 17.7321 86.1268 18.4266 86.1268 19.2216C86.1268 20.0055 85.9791 20.6934 85.6837 21.2855C85.3884 21.8775 84.9729 22.3378 84.4373 22.6663C83.9017 22.9949 83.2734 23.1591 82.5524 23.1591ZM82.5524 21.8875C83.0173 21.8875 83.4016 21.7656 83.7051 21.5218C84.0087 21.278 84.2341 20.9539 84.3813 20.5495C84.5285 20.145 84.6021 19.7016 84.6021 19.2192C84.6021 18.7322 84.5285 18.2852 84.3813 17.8783C84.2341 17.4714 84.0087 17.1455 83.7051 16.9006C83.4016 16.6558 83.0173 16.5333 82.5524 16.5333C82.0904 16.5333 81.7092 16.6558 81.409 16.9006C81.1088 17.1455 80.885 17.4705 80.7378 17.8755C80.5906 18.2806 80.517 18.7285 80.517 19.2192C80.517 19.7016 80.5906 20.145 80.7378 20.5495C80.885 20.9539 81.1088 21.278 81.409 21.5218C81.7092 21.7656 82.0904 21.8875 82.5524 21.8875ZM87.9347 23V15.3574H89.39V16.5849H89.472C89.6124 16.1696 89.8585 15.8434 90.2101 15.6062C90.5618 15.3691 90.9609 15.2505 91.4076 15.2505C91.5037 15.2505 91.6138 15.254 91.7379 15.261C91.862 15.2681 91.9638 15.2767 92.0433 15.287V16.7224C91.9887 16.7059 91.8839 16.6883 91.7286 16.6697C91.5733 16.6511 91.4157 16.6417 91.2558 16.6417C90.9084 16.6417 90.5968 16.7152 90.3209 16.8621C90.0451 17.0091 89.829 17.2113 89.6728 17.4689C89.5165 17.7265 89.4383 18.0235 89.4383 18.36V23H87.9347ZM95.5657 23.1679C95.0818 23.1679 94.6444 23.0786 94.2535 22.9C93.8625 22.7214 93.5529 22.4587 93.3246 22.1119C93.0963 21.7651 92.9821 21.3406 92.9821 20.8385C92.9821 20.4043 93.0658 20.0484 93.2333 19.7708C93.4007 19.4933 93.626 19.273 93.9093 19.1101C94.1925 18.9471 94.5086 18.8246 94.8574 18.7426C95.2063 18.6607 95.5621 18.5985 95.925 18.5562C96.3758 18.5019 96.7421 18.4576 97.0239 18.4232C97.3056 18.3888 97.514 18.3319 97.6489 18.2524C97.7838 18.1728 97.8512 18.0434 97.8512 17.8639V17.8253C97.8512 17.54 97.7963 17.2984 97.6864 17.1008C97.5765 16.9031 97.4129 16.7514 97.1956 16.6456C96.9784 16.5399 96.708 16.487 96.3845 16.487C96.0544 16.487 95.7701 16.5382 95.5316 16.6407C95.2932 16.7431 95.0992 16.8734 94.9498 17.0316C94.8003 17.1898 94.689 17.3557 94.616 17.5293L93.2009 17.1655C93.3747 16.7072 93.6234 16.3391 93.9471 16.061C94.2707 15.783 94.6419 15.5803 95.0606 15.4529C95.4793 15.3254 95.9137 15.2617 96.3638 15.2617C96.6707 15.2617 96.9974 15.2984 97.3437 15.3718C97.6901 15.4453 98.0156 15.5772 98.3203 15.7677C98.625 15.9582 98.8736 16.2274 99.0661 16.5753C99.2586 16.9232 99.3548 17.3735 99.3548 17.9262V23H97.9V21.9536H97.8229C97.724 22.151 97.5766 22.343 97.3807 22.5297C97.1848 22.7164 96.937 22.8694 96.6374 22.9888C96.3378 23.1082 95.9806 23.1679 95.5657 23.1679ZM95.8994 21.9641C96.3108 21.9641 96.6621 21.8834 96.9532 21.7221C97.2442 21.5608 97.4675 21.3488 97.623 21.0861C97.7784 20.8234 97.8561 20.5441 97.8561 20.2481V19.2661C97.8019 19.3196 97.6983 19.3684 97.5452 19.4126C97.3922 19.4567 97.2185 19.4958 97.0242 19.5298C96.8299 19.5638 96.6407 19.5927 96.4568 19.6166C96.2729 19.6404 96.1225 19.6595 96.0056 19.674C95.7242 19.7097 95.4658 19.7707 95.2304 19.8571C94.9951 19.9435 94.8082 20.0664 94.6696 20.2258C94.5311 20.3853 94.4618 20.5964 94.4618 20.8594C94.4618 21.1016 94.524 21.3043 94.6484 21.4677C94.7728 21.6311 94.9429 21.7547 95.1585 21.8384C95.3742 21.9222 95.6211 21.9641 95.8994 21.9641Z" fill="#005A9C"/>
</svg>
