<svg width="11" height="12" viewBox="0 0 11 12" fill="none" xmlns="http://www.w3.org/2000/svg">
<path d="M6.90001 9.60001C6.48001 9.60001 6.12501 9.45501 5.83501 9.16501C5.54501 8.87501 5.4 8.52001 5.4 8.10001C5.4 7.68001 5.54501 7.32501 5.83501 7.03501C6.12501 6.74501 6.48001 6.60001 6.90001 6.60001C7.32001 6.60001 7.67501 6.74501 7.96501 7.03501C8.25501 7.32501 8.40001 7.68001 8.40001 8.10001C8.40001 8.52001 8.25501 8.87501 7.96501 9.16501C7.67501 9.45501 7.32001 9.60001 6.90001 9.60001ZM1.2 12C0.870001 12 0.5875 11.8825 0.3525 11.6475C0.1175 11.4125 0 11.13 0 10.8V2.4C0 2.07 0.1175 1.7875 0.3525 1.5525C0.5875 1.3175 0.870001 1.2 1.2 1.2H1.8V0H3V1.2H7.80001V0H9.00001V1.2H9.60001C9.93001 1.2 10.2125 1.3175 10.4475 1.5525C10.6825 1.7875 10.8 2.07 10.8 2.4V10.8C10.8 11.13 10.6825 11.4125 10.4475 11.6475C10.2125 11.8825 9.93001 12 9.60001 12H1.2ZM1.2 10.8H9.60001V4.8H1.2V10.8ZM1.2 3.6H9.60001V2.4H1.2V3.6ZM1.2 3.6V2.4V3.6Z" fill="white"/>
</svg>
