<svg width="48" height="48" viewBox="0 0 48 48" fill="none" xmlns="http://www.w3.org/2000/svg">
<rect width="48" height="48" rx="24" fill="#0077C8" fill-opacity="0.1"/>
<path d="M18 34C17.1667 34 16.4583 33.7083 15.875 33.125C15.2917 32.5417 15 31.8333 15 31V28H18V14L19.5 15.5L21 14L22.5 15.5L24 14L25.5 15.5L27 14L28.5 15.5L30 14L31.5 15.5L33 14V31C33 31.8333 32.7083 32.5417 32.125 33.125C31.5417 33.7083 30.8333 34 30 34H18ZM30 32C30.2833 32 30.5208 31.9042 30.7125 31.7125C30.9042 31.5208 31 31.2833 31 31V17H20V28H29V31C29 31.2833 29.0958 31.5208 29.2875 31.7125C29.4792 31.9042 29.7167 32 30 32ZM21 21V19H27V21H21ZM21 24V22H27V24H21ZM29 21C28.7167 21 28.4792 20.9042 28.2875 20.7125C28.0958 20.5208 28 20.2833 28 20C28 19.7167 28.0958 19.4792 28.2875 19.2875C28.4792 19.0958 28.7167 19 29 19C29.2833 19 29.5208 19.0958 29.7125 19.2875C29.9042 19.4792 30 19.7167 30 20C30 20.2833 29.9042 20.5208 29.7125 20.7125C29.5208 20.9042 29.2833 21 29 21ZM29 24C28.7167 24 28.4792 23.9042 28.2875 23.7125C28.0958 23.5208 28 23.2833 28 23C28 22.7167 28.0958 22.4792 28.2875 22.2875C28.4792 22.0958 28.7167 22 29 22C29.2833 22 29.5208 22.0958 29.7125 22.2875C29.9042 22.4792 30 22.7167 30 23C30 23.2833 29.9042 23.5208 29.7125 23.7125C29.5208 23.9042 29.2833 24 29 24ZM18 32H27V30H17V31C17 31.2833 17.0958 31.5208 17.2875 31.7125C17.4792 31.9042 17.7167 32 18 32ZM17 32C17 32 17 31.9042 17 31.7125C17 31.5208 17 31.2833 17 31V30V32Z" fill="#0077C8"/>
</svg>
