<svg width="48" height="48" viewBox="0 0 48 48" fill="none" xmlns="http://www.w3.org/2000/svg">
<rect width="48" height="48" rx="24" fill="#0077C8" fill-opacity="0.1"/>
<path d="M21.5 30C20.95 30 20.4792 29.8042 20.0875 29.4125C19.6958 29.0208 19.5 28.55 19.5 28V16C19.5 15.45 19.6958 14.9792 20.0875 14.5875C20.4792 14.1958 20.95 14 21.5 14H30.5C31.05 14 31.5208 14.1958 31.9125 14.5875C32.3042 14.9792 32.5 15.45 32.5 16V28C32.5 28.55 32.3042 29.0208 31.9125 29.4125C31.5208 29.8042 31.05 30 30.5 30H21.5ZM21.5 28H30.5V16H21.5V28ZM17.5 34C16.95 34 16.4792 33.8042 16.0875 33.4125C15.6958 33.0208 15.5 32.55 15.5 32V18H17.5V32H28.5V34H17.5ZM21.5 28V16V28Z" fill="#0077C8"/>
</svg>
