<svg width="48" height="48" viewBox="0 0 48 48" fill="none" xmlns="http://www.w3.org/2000/svg">
<rect width="48" height="48" rx="24" fill="#F3F4F6"/>
<path d="M24.5 23.95C24.9833 23.4167 25.3542 22.8083 25.6125 22.125C25.8708 21.4417 26 20.7333 26 20C26 19.2667 25.8708 18.5583 25.6125 17.875C25.3542 17.1917 24.9833 16.5833 24.5 16.05C25.5 16.1833 26.3333 16.625 27 17.375C27.6667 18.125 28 19 28 20C28 21 27.6667 21.875 27 22.625C26.3333 23.375 25.5 23.8167 24.5 23.95ZM30 32V29C30 28.4 29.8667 27.8292 29.6 27.2875C29.3333 26.7458 28.9833 26.2667 28.55 25.85C29.4 26.15 30.1875 26.5375 30.9125 27.0125C31.6375 27.4875 32 28.15 32 29V32H30ZM32 25V23H30V21H32V19H34V21H36V23H34V25H32ZM20 24C18.9 24 17.9583 23.6083 17.175 22.825C16.3917 22.0417 16 21.1 16 20C16 18.9 16.3917 17.9583 17.175 17.175C17.9583 16.3917 18.9 16 20 16C21.1 16 22.0417 16.3917 22.825 17.175C23.6083 17.9583 24 18.9 24 20C24 21.1 23.6083 22.0417 22.825 22.825C22.0417 23.6083 21.1 24 20 24ZM12 32V29.2C12 28.6333 12.1458 28.1125 12.4375 27.6375C12.7292 27.1625 13.1167 26.8 13.6 26.55C14.6333 26.0333 15.6833 25.6458 16.75 25.3875C17.8167 25.1292 18.9 25 20 25C21.1 25 22.1833 25.1292 23.25 25.3875C24.3167 25.6458 25.3667 26.0333 26.4 26.55C26.8833 26.8 27.2708 27.1625 27.5625 27.6375C27.8542 28.1125 28 28.6333 28 29.2V32H12ZM20 22C20.55 22 21.0208 21.8042 21.4125 21.4125C21.8042 21.0208 22 20.55 22 20C22 19.45 21.8042 18.9792 21.4125 18.5875C21.0208 18.1958 20.55 18 20 18C19.45 18 18.9792 18.1958 18.5875 18.5875C18.1958 18.9792 18 19.45 18 20C18 20.55 18.1958 21.0208 18.5875 21.4125C18.9792 21.8042 19.45 22 20 22ZM14 30H26V29.2C26 29.0167 25.9542 28.85 25.8625 28.7C25.7708 28.55 25.65 28.4333 25.5 28.35C24.6 27.9 23.6917 27.5625 22.775 27.3375C21.8583 27.1125 20.9333 27 20 27C19.0667 27 18.1417 27.1125 17.225 27.3375C16.3083 27.5625 15.4 27.9 14.5 28.35C14.35 28.4333 14.2292 28.55 14.1375 28.7C14.0458 28.85 14 29.0167 14 29.2V30Z" fill="#9CA3AF"/>
</svg>
