<svg width="48" height="48" viewBox="0 0 48 48" fill="none" xmlns="http://www.w3.org/2000/svg">
<rect width="48" height="48" rx="24" fill="#FEE2E2" fill-opacity="0.4"/>
<path d="M18.9877 30.5H28.9877V21.825L23.9877 18L18.9877 21.825V30.5ZM16.9877 32.5V23.35L14.1877 25.5L13.0127 23.925L23.9877 15.5L34.9877 23.9L33.7877 25.5L30.9877 23.35V32.5H16.9877ZM23.9877 28.5C24.5377 28.5 25.0085 28.3042 25.4002 27.9125C25.7919 27.5208 25.9877 27.05 25.9877 26.5C25.9877 26.05 25.8627 25.5708 25.6127 25.0625C25.3627 24.5542 24.821 23.7 23.9877 22.5C23.1544 23.7 22.6127 24.5542 22.3627 25.0625C22.1127 25.5708 21.9877 26.05 21.9877 26.5C21.9877 27.05 22.1835 27.5208 22.5752 27.9125C22.9669 28.3042 23.4377 28.5 23.9877 28.5Z" fill="#EF4444"/>
</svg>
